Coordinates
version=1
nRows=32
nColumns=22
inDegrees=yes

Units are S.I. units (second, meters, Newtons, ...)
If the header above contains a line with 'inDegrees', this indicates whether rotational values are in degrees (yes) or radians (no).

endheader
time	pelvis_tilt	pelvis_list	pelvis_rotation	pelvis_tx	pelvis_ty	pelvis_tz	hip_flexion_r	hip_adduction_r	hip_rotation_r	knee_angle_r	ankle_angle_r	subtalar_angle_r	hip_flexion_l	hip_adduction_l	hip_rotation_l	knee_angle_l	ankle_angle_l	subtalar_angle_l	lumbar_extension	lumbar_bending	lumbar_rotation
      0.01000000	     -0.35527780	     -2.12091024	     -0.17060275	     -0.99692097	      0.94525932	     -0.69246034	      1.77604020	      0.64640755	    -15.46912397	    -10.93764397	     10.00850952	     -0.87990322	      4.01805494	     -3.38554902	    -10.06985353	    -16.17889524	     12.14465044	      0.20869959	     -7.81356204	     -2.50473167	     -3.66227873
      0.02000000	     -0.36892096	     -2.12455251	     -0.16800859	     -0.99694090	      0.94525657	     -0.69246192	      1.75855432	      0.65748281	    -15.49058335	    -10.87534486	     10.00569762	     -0.89577834	      4.01820384	     -3.38755608	    -10.07241905	    -16.14781510	     12.14188434	      0.19536343	     -7.78143077	     -2.49314834	     -3.65760842
      0.03000000	     -0.38236276	     -2.13710559	     -0.15365214	     -0.99699216	      0.94526495	     -0.69247287	      1.72257155	      0.68631374	    -15.48483554	    -10.77494919	      9.96035704	     -0.93393830	      4.02419318	     -3.39699205	    -10.04362531	    -16.12078789	     12.12904755	      0.16753856	     -7.75155344	     -2.46763260	     -3.67940511
      0.04000000	     -0.40173061	     -2.13578065	     -0.15203395	     -0.99703371	      0.94525699	     -0.69247590	      1.70190277	      0.69373941	    -15.50942086	    -10.69362534	      9.95706233	     -0.93994234	      4.03058496	     -3.39452031	    -10.05707419	    -16.08797218	     12.12872614	      0.16307090	     -7.70780198	     -2.45773537	     -3.67669869
      0.05000000	     -0.42595574	     -2.15075798	     -0.13557853	     -0.99711039	      0.94525585	     -0.69248271	      1.66602223	      0.72859758	    -15.50172626	    -10.56888608	      9.90192077	     -0.95899225	      4.04905728	     -3.40801044	    -10.02866678	    -16.05820338	     12.11100488	      0.15288018	     -7.66375122	     -2.42713109	     -3.70422587
      0.06000000	     -0.44866615	     -2.14968944	     -0.13211547	     -0.99716398	      0.94524416	     -0.69248976	      1.64413371	      0.73816007	    -15.53025195	    -10.47701439	      9.89610575	     -0.96259722	      4.05813759	     -3.40522461	    -10.04355920	    -16.02283915	     12.11026789	      0.15121483	     -7.61233822	     -2.41343358	     -3.70382713
      0.07000000	     -0.47645924	     -2.15422503	     -0.12253675	     -0.99724271	      0.94523030	     -0.69248739	      1.62007645	      0.75865529	    -15.54365519	    -10.36729793	      9.87337470	     -0.96845967	      4.07593734	     -3.40892405	    -10.04176053	    -15.98684956	     12.10037971	      0.14875187	     -7.56073046	     -2.39539450	     -3.72058079
      0.08000000	     -0.50380941	     -2.16036438	     -0.10958315	     -0.99731674	      0.94521471	     -0.69250382	      1.59667352	      0.77935312	    -15.55554953	    -10.26118992	      9.84345126	     -0.97552544	      4.09513015	     -3.41306916	    -10.03455500	    -15.95525605	     12.08925929	      0.14660617	     -7.50686357	     -2.37041148	     -3.74098416
      0.09000000	     -0.53087670	     -2.16776665	     -0.09488617	     -0.99740371	      0.94519790	     -0.69251997	      1.57843583	      0.79995085	    -15.56732995	    -10.16364395	      9.80980139	     -0.98371578	      4.11671913	     -3.41943349	    -10.02416863	    -15.92647191	     12.07883734	      0.14486710	     -7.45642221	     -2.34393471	     -3.76612031
      0.10000000	     -0.55758049	     -2.17473161	     -0.07957865	     -0.99749936	      0.94517976	     -0.69253506	      1.56695769	      0.81940450	    -15.58025964	    -10.07814977	      9.77679206	     -0.99258629	      4.13982307	     -3.42504988	    -10.01325063	    -15.89994135	     12.06991256	      0.14362977	     -7.40926552	     -2.31707253	     -3.79386120
      0.11000000	     -0.59075210	     -2.19144797	     -0.05043924	     -0.99763227	      0.94515091	     -0.69256638	      1.56915052	      0.84900507	    -15.58986953	    -10.00179027	      9.71123942	     -1.01314767	      4.18655084	     -3.44103813	     -9.96730579	    -15.89659894	     12.05836915	      0.14336365	     -7.36340278	     -2.27663837	     -3.83848414
      0.12000000	     -0.61010488	     -2.18983929	     -0.04366907	     -0.99771246	      0.94513425	     -0.69258138	      1.57003738	      0.85190595	    -15.60895102	     -9.95680025	      9.70945261	     -1.01695620	      4.19630412	     -3.43840300	     -9.98285249	    -15.86490889	     12.05938426	      0.14353638	     -7.32567146	     -2.25867293	     -3.85543530
      0.13000000	     -0.63436423	     -2.18909230	     -0.03213244	     -0.99779387	      0.94511227	     -0.69259933	      1.57631256	      0.85687615	    -15.62043302	     -9.91150447	      9.69798531	     -1.02308271	      4.21348800	     -3.43587915	     -9.98547849	    -15.83474442	     12.05268558	      0.14321291	     -7.28515851	     -2.23859209	     -3.88215408
      0.14000000	     -0.68010097	     -2.19306499	     -0.00708860	     -0.99791732	      0.94505897	     -0.69263019	      1.61346461	      0.86673992	    -15.63238459	     -9.87525217	      9.65718298	     -1.04352982	      4.27166941	     -3.43709995	     -9.94244693	    -15.82882513	     12.03110466	      0.14307439	     -7.22941896	     -2.21288451	     -3.92250388
      0.15000000	     -0.69543285	     -2.19072749	     -0.00086453	     -0.99798792	      0.94504792	     -0.69264552	      1.62580705	      0.86499106	    -15.64193036	     -9.86120513	      9.65890463	     -1.04683260	      4.27803088	     -3.43424147	     -9.95974326	    -15.79923384	     12.03213348	      0.14309335	     -7.20489019	     -2.19262347	     -3.94439018
      0.16000000	     -0.71657137	     -2.18714786	      0.00781582	     -0.99804906	      0.94502861	     -0.69266586	      1.64463629	      0.86257634	    -15.64786322	     -9.84783672	      9.65490098	     -1.05180800	      4.29036742	     -3.42834642	     -9.96610054	    -15.76929482	     12.02417256	      0.14216794	     -7.17430151	     -2.17285131	     -3.97001715
      0.17000000	     -0.74134635	     -2.18271182	      0.01625074	     -0.99811468	      0.94500739	     -0.69268811	      1.67309224	      0.85770936	    -15.65136067	     -9.84383985	      9.64814200	     -1.05813837	      4.30828002	     -3.42064737	     -9.96341766	    -15.74116166	     12.00935702	      0.14016211	     -7.14345125	     -2.15336510	     -3.99771705
      0.18000000	     -0.74387946	     -2.17692370	      0.02226549	     -0.99817775	      0.94501424	     -0.69270968	      1.67810521	      0.85117268	    -15.65045414	     -9.84178495	      9.64783804	     -1.05880101	      4.31242924	     -3.41301876	     -9.96571739	    -15.73564142	     12.00815239	      0.14009371	     -7.14419363	     -2.13534599	     -3.99836780
      0.19000000	     -0.76703489	     -2.17352451	      0.02777299	     -0.99819471	      0.94499815	     -0.69272993	      1.70850816	      0.84587512	    -15.64936304	     -9.85217176	      9.64430034	     -1.06277171	      4.31789239	     -3.40589402	     -9.97161499	    -15.69228878	     11.99183486	      0.13709125	     -7.11162540	     -2.11108350	     -4.03947612
      0.20000000	     -0.77012372	     -2.16700770	      0.03165296	     -0.99823291	      0.94500777	     -0.69275482	      1.71440876	      0.83809644	    -15.64824723	     -9.85106297	      9.64415170	     -1.06331709	      4.32126157	     -3.39663732	     -9.97269507	    -15.68758812	     11.98968115	      0.13688353	     -7.11233817	     -2.09129161	     -4.04049030
      0.21000000	     -0.79069751	     -2.16146742	      0.03302444	     -0.99823755	      0.94499680	     -0.69276819	      1.74951107	      0.82873399	    -15.64076033	     -9.87659178	      9.64236481	     -1.06570416	      4.32383575	     -3.38632688	     -9.97192294	    -15.64613232	     11.96881996	      0.13328829	     -7.08529638	     -2.06872691	     -4.08363923
      0.22000000	     -0.79332452	     -2.15432765	      0.03449001	     -0.99824311	      0.94500628	     -0.69278772	      1.75368095	      0.81978887	    -15.63934038	     -9.87723012	      9.64261885	     -1.06600836	      4.32579464	     -3.37655586	     -9.97192546	    -15.64361297	     11.96643520	      0.13312278	     -7.08431759	     -2.04859342	     -4.08479334
      0.23000000	     -0.83190263	     -2.12985212	      0.03388185	     -0.99825151	      0.94496903	     -0.69280636	      1.81933387	      0.78611082	    -15.63456925	     -9.92292461	      9.65676788	     -1.06545440	      4.35088255	     -3.34155884	     -9.94195633	    -15.60754772	     11.91900031	      0.12760633	     -7.03849967	     -2.04888475	     -4.11663833
      0.24000000	     -0.83227555	     -2.12378208	      0.03265471	     -0.99822586	      0.94498020	     -0.69281853	      1.82037286	      0.77863705	    -15.63207946	     -9.92489137	      9.65708863	     -1.06560328	      4.34907224	     -3.33354778	     -9.94428457	    -15.60773245	     11.91941529	      0.12791228	     -7.03678860	     -2.02709173	     -4.12128330
      0.25000000	     -0.83223147	     -2.12038561	      0.02816621	     -0.99819476	      0.94499182	     -0.69281720	      1.83015607	      0.77284538	    -15.61535543	     -9.94689401	      9.65899096	     -1.06520233	      4.33940741	     -3.32899759	     -9.95269636	    -15.59408691	     11.92188493	      0.13021726	     -7.03529600	     -2.00152748	     -4.16014737
      0.26000000	     -0.83143343	     -2.11372983	      0.02526720	     -0.99814184	      0.94500192	     -0.69282062	      1.82851270	      0.76525931	    -15.61234873	     -9.94911964	      9.65930787	     -1.06529842	      4.33541880	     -3.32059817	     -9.95237408	    -15.59718881	     11.92204890	      0.13112449	     -7.03076856	     -1.98152242	     -4.16363083
      0.27000000	     -0.82701595	     -2.10749238	      0.01965762	     -0.99809231	      0.94501693	     -0.69282173	      1.82916337	      0.75706784	    -15.59124596	     -9.96399377	      9.66280634	     -1.06484421	      4.32340687	     -3.31204271	     -9.95086972	    -15.59147138	     11.92717583	      0.13826928	     -7.03273219	     -1.95879483	     -4.19637805
      0.28000000	     -0.82490853	     -2.10073024	      0.01608904	     -0.99801079	      0.94502622	     -0.69282023	      1.82366908	      0.74993706	    -15.58825593	     -9.96606923	      9.66329040	     -1.06502174	      4.31758334	     -3.30380143	     -9.94887306	    -15.59758334	     11.92768666	      0.13987231	     -7.02497596	     -1.93967607	     -4.19855154
      0.29000000	     -0.82222587	     -2.09421825	      0.01096139	     -0.99792281	      0.94503381	     -0.69282039	      1.81707067	      0.74249330	    -15.58398161	     -9.96815950	      9.66408661	     -1.06523566	      4.31127749	     -3.29569500	     -9.94597468	    -15.60425562	     11.92890614	      0.14193957	     -7.01764780	     -1.91951692	     -4.20288788
      0.30000000	     -0.81888533	     -2.08795340	      0.00586702	     -0.99782391	      0.94504092	     -0.69281910	      1.80842033	      0.73551641	    -15.57869317	     -9.97017952	      9.66530588	     -1.06546704	      4.30418933	     -3.28800231	     -9.94212600	    -15.61203354	     11.93070551	      0.14437564	     -7.00951769	     -1.89913822	     -4.20802591
      0.31000000	     -0.77380795	     -2.09754871	      0.01629240	     -0.99769020	      0.94510677	     -0.69282085	      1.72164985	      0.75620609	    -15.55157371	     -9.91572574	      9.68192563	     -1.06987867	      4.24809728	     -3.29700087	     -9.90781550	    -15.61433282	     11.96877612	      0.20363042	     -7.05049512	     -1.86124516	     -4.23639824
      0.32000000	     -0.77123180	     -2.09129099	      0.01148098	     -0.99757044	      0.94511216	     -0.69281692	      1.71246815	      0.74916919	    -15.55004116	     -9.91960434	      9.68081212	     -1.07028442	      4.24105572	     -3.28998822	     -9.90594920	    -15.62292056	     11.96746410	      0.20452048	     -7.03862496	     -1.84202815	     -4.23757090
